<?xml version="1.0" encoding="utf-8"?>
<!-- Generator: Adobe Illustrator 16.0.2, SVG Export Plug-In . SVG Version: 6.00 Build 0)  -->
<!DOCTYPE svg PUBLIC "-//W3C//DTD SVG 1.1//EN" "http://www.w3.org/Graphics/SVG/1.1/DTD/svg11.dtd">
<svg version="1.1" id="Слой_1" xmlns="http://www.w3.org/2000/svg" xmlns:xlink="http://www.w3.org/1999/xlink" x="0px" y="0px"
	 width="125px" height="88px" viewBox="0 0 125 88" enable-background="new 0 0 125 88" xml:space="preserve">
<path fill-rule="evenodd" clip-rule="evenodd" fill="#9DA6A3" d="M113.974,68.043h-8.521V54.689h1.732v7.03h0.002v5.267h0.762v0.001
	h6.024V68.043L113.974,68.043z M98.234,68.042h-8.979V54.688h8.618v1.058h-1.488H90.99v4.771h4.428v0.002h1.479v0.835H95.49v0.001
	h-4.5v5.628h5.272v0.001h1.972V68.042L98.234,68.042z M77.766,55.747v8.667v3.63h-1.738v-0.699h0.002V55.747h-2.266l0,0h-2.845
	v-1.057h11.956v1.06L77.766,55.747L77.766,55.747z M56.603,64.843h1.587c0.078,2.684,3.363,3.153,5.241,2.075
	c0.749-0.427,1.125-1.065,1.125-1.917c0-0.798-0.259-1.402-0.778-1.815c-0.32-0.254-1.019-0.586-2.096-0.999
	c-1.371-0.531-2.196-0.864-2.475-0.997c-0.825-0.386-1.411-0.786-1.756-1.198c-0.439-0.518-0.659-1.176-0.659-1.976
	c0-4.732,8.672-4.867,8.672-0.145l-1.586,0c-0.076-2.574-2.939-3.173-4.745-1.95c-0.507,0.343-0.81,0.75-0.908,1.223
	c-0.021,0.112-0.032,0.229-0.032,0.351c0,0.771,0.466,1.417,1.397,1.936c0.253,0.133,1.184,0.506,2.794,1.117
	c0.763,0.291,1.38,0.561,1.849,0.811h-0.01c0.285,0.15,0.516,0.294,0.692,0.43c0.825,0.639,1.236,1.478,1.236,2.515
	c0,1.172-0.458,2.125-1.375,2.863C62.479,69.013,56.603,68.831,56.603,64.843L56.603,64.843L56.603,64.843z M49.679,68.043h-1.736
	v-0.699V55.388v-0.699h1.736V68.043L49.679,68.043z M41.964,68.043c-0.293,0.146-0.699,0.219-1.217,0.219
	c-0.771,0-1.364-0.186-1.776-0.559c-0.32-0.293-1.019-1.238-2.096-2.834c-0.944-1.424-1.503-2.235-1.676-2.436
	c-0.173-0.199-0.399-0.299-0.679-0.299h-1.637v5.209v0.699h-1.735V54.689h4.31c1.53,0,2.673,0.406,3.432,1.218
	c0.599,0.64,0.899,1.404,0.899,2.295c0,0.878-0.267,1.649-0.799,2.315c-0.625,0.785-1.497,1.177-2.615,1.177l-0.278,0.021v0.1
	l0.438,0.079c0.239,0.107,0.446,0.273,0.619,0.496c0.532,0.889,1.238,1.977,2.116,3.263c0.412,0.597,0.751,1.01,1.018,1.231
	c0.373,0.307,0.805,0.459,1.298,0.459h0.378V68.043L41.964,68.043z M37.952,58.343c0-0.812-0.286-1.483-0.857-2.016
	c-0.573-0.533-1.33-0.799-2.275-0.799h-1.936v5.768h1.976c0.945,0,1.71-0.319,2.295-0.957
	C37.686,59.766,37.952,59.101,37.952,58.343L37.952,58.343L37.952,58.343z M24.39,68.043h-1.897l-1.783-3.937h-6.296l-1.603,3.937
	h-0.907l5.601-13.382h0.787L24.39,68.043L24.39,68.043z M20.376,63.261l-2.755-6.159h-0.274l-2.602,6.159H20.376z"/>
<rect x="49.685" y="13.557" fill-rule="evenodd" clip-rule="evenodd" fill="#9DA6A3" width="26.347" height="34.492"/>
<rect x="74.889" y="33.104" fill-rule="evenodd" clip-rule="evenodd" fill="#8FB9C3" width="1.135" height="7.01"/>
<path fill-rule="evenodd" clip-rule="evenodd" fill="#8FB9C3" d="M59.785,33.357h4.345c-1.076,2.145-2.215,4.012-2.25,6.28h-1.54
	C59.725,37.541,59.621,35.42,59.785,33.357L59.785,33.357z"/>
<rect x="49.68" y="33.104" fill-rule="evenodd" clip-rule="evenodd" fill="#8FB9C3" width="1.134" height="7.01"/>
<rect x="74.889" y="24.437" fill-rule="evenodd" clip-rule="evenodd" fill="#8FB9C3" width="1.135" height="1.529"/>
<path fill-rule="evenodd" clip-rule="evenodd" fill="#8FB9C3" d="M61.286,25.59h3.732c-0.251,0.501-0.532,0.943-0.829,1.372
	l-3.246,0C61.06,26.494,61.175,26.038,61.286,25.59L61.286,25.59z"/>
<rect x="49.68" y="24.437" fill-rule="evenodd" clip-rule="evenodd" fill="#8FB9C3" width="1.134" height="1.529"/>
<rect x="74.889" y="18.292" fill-rule="evenodd" clip-rule="evenodd" fill="#8FB9C3" width="1.135" height="2.576"/>
<rect x="49.68" y="18.292" fill-rule="evenodd" clip-rule="evenodd" fill="#8FB9C3" width="1.134" height="2.576"/>
<path fill-rule="evenodd" clip-rule="evenodd" fill="#8FB9C3" d="M62.197,20.085h3.106c0.201,0.693,0.299,1.45,0.271,2.255
	l-3.563,0.002C62.157,21.501,62.226,20.78,62.197,20.085L62.197,20.085z"/>
<path fill-rule="evenodd" clip-rule="evenodd" fill="#8FB9C3" d="M66.567,44.216h-1.966c0.082-1.367,1.162-2.324,3.941-2.783
	c1.625-0.268,2.633-0.886-0.256,1.176C67.542,43.14,66.986,43.696,66.567,44.216L66.567,44.216z"/>
<rect x="49.68" y="25.966" fill-rule="evenodd" clip-rule="evenodd" fill="#E5D8B0" width="1.134" height="4.079"/>
<path fill-rule="evenodd" clip-rule="evenodd" fill="#E5D8B0" d="M62.011,22.342l3.563-0.002l0.419-0.142
	c-0.194,1.443-0.558,2.56-0.976,3.392h-3.732C61.573,24.448,62.011,22.342,62.011,22.342z"/>
<path fill-rule="evenodd" clip-rule="evenodd" fill="#E5D8B0" d="M60.944,26.961h3.246c-0.743,1.071-1.583,2.052-2.303,3.655h-1.742
	C60.369,29.353,60.657,28.127,60.944,26.961L60.944,26.961z"/>
<path fill-rule="evenodd" clip-rule="evenodd" fill="#E5D8B0" d="M65.313,30.616H63.04c0.907-0.701,1.931-1.491,2.971-3.53
	C65.937,28.398,65.673,29.557,65.313,30.616L65.313,30.616z"/>
<path fill-rule="evenodd" clip-rule="evenodd" fill="#E5D8B0" d="M60.34,39.637h1.54c-0.02,1.337,0.342,2.813,1.326,4.568l-0.563,0
	C61.531,42.716,60.794,41.185,60.34,39.637L60.34,39.637z"/>
<rect x="74.889" y="40.113" fill-rule="evenodd" clip-rule="evenodd" fill="#E5D8B0" width="1.135" height="5.098"/>
<rect x="74.889" y="25.966" fill-rule="evenodd" clip-rule="evenodd" fill="#E5D8B0" width="1.135" height="4.079"/>
<rect x="49.68" y="40.113" fill-rule="evenodd" clip-rule="evenodd" fill="#E5D8B0" width="1.134" height="5.098"/>
<rect x="74.889" y="45.211" fill-rule="evenodd" clip-rule="evenodd" fill="#F5B4B7" width="1.135" height="2.805"/>
<path fill-rule="evenodd" clip-rule="evenodd" fill="#F5B4B7" d="M62.642,44.205h0.564c0.419,0.747,0.95,1.543,1.612,2.399
	C63.967,45.822,63.249,45.021,62.642,44.205L62.642,44.205z"/>
<path fill-rule="evenodd" clip-rule="evenodd" fill="#F5B4B7" d="M64.602,44.216h1.966c-1.206,1.496-1.285,2.692-1.5,2.162
	C64.742,45.575,64.563,44.853,64.602,44.216L64.602,44.216z"/>
<rect x="49.68" y="45.211" fill-rule="evenodd" clip-rule="evenodd" fill="#F5B4B7" width="1.134" height="2.805"/>
<rect x="49.68" y="30.045" fill-rule="evenodd" clip-rule="evenodd" fill="#F5B4B7" width="1.134" height="3.059"/>
<rect x="74.889" y="30.045" fill-rule="evenodd" clip-rule="evenodd" fill="#F5B4B7" width="1.135" height="3.059"/>
<rect x="74.889" y="20.868" fill-rule="evenodd" clip-rule="evenodd" fill="#F5B4B7" width="1.135" height="3.569"/>
<rect x="49.68" y="20.868" fill-rule="evenodd" clip-rule="evenodd" fill="#F5B4B7" width="1.134" height="3.569"/>
<path fill-rule="evenodd" clip-rule="evenodd" fill="#F5B4B7" d="M65.304,20.085h-3.106c-0.048-1.154-0.392-2.086-1.228-2.732
	c-0.602-0.466-1.183-0.688-1.938-0.568c-1.403,0.219-2.778,1.324-2.778,1.324C59.289,14.109,64.109,15.957,65.304,20.085
	L65.304,20.085z"/>
<rect x="49.68" y="13.553" fill-rule="evenodd" clip-rule="evenodd" fill="#F5B4B7" width="1.134" height="4.739"/>
<rect x="74.889" y="13.553" fill-rule="evenodd" clip-rule="evenodd" fill="#F5B4B7" width="1.135" height="4.739"/>
<path fill-rule="evenodd" clip-rule="evenodd" fill="#F5B4B7" d="M60.145,30.616h1.742c-0.274,0.604-0.531,1.298-0.756,2.119
	c0.525-1.051,1.179-1.556,1.909-2.119h2.272c-0.334,0.985-0.753,1.885-1.183,2.741h-4.345
	C59.858,32.428,59.985,31.513,60.145,30.616z"/>
<path fill="#9DA6A3" d="M21.173,76.82h0.215l0.34-0.757l0.415-0.947l0.382-0.898c0.112-0.268,0.188-0.455,0.228-0.564h0.239
	l0.428,1.036l0.542,1.301l0.355,0.83h0.215c-0.01,0.054-0.015,0.12-0.015,0.2c0,0.106,0.005,0.189,0.015,0.248h-0.044
	c-0.063-0.098-0.167-0.156-0.31-0.177c-0.144-0.021-0.373-0.032-0.691-0.032h-1.221c-0.08,0-0.163,0.001-0.248,0.003
	c-0.086,0.001-0.176,0.004-0.27,0.007c-0.056,0-0.108,0.004-0.157,0.014c-0.05,0.009-0.102,0.022-0.155,0.04
	c-0.09,0.029-0.166,0.077-0.229,0.146h-0.035c0.01-0.048,0.015-0.132,0.015-0.248L21.173,76.82L21.173,76.82z M21.708,76.82h2.141
	l-0.245-0.611l-0.412-1.02l-0.293-0.72l-0.107-0.27h-0.02l-0.266,0.596l-0.256,0.604c-0.113,0.269-0.207,0.504-0.283,0.707
	C21.891,76.309,21.804,76.547,21.708,76.82L21.708,76.82z M27.268,77.136c-0.271,0-0.522-0.042-0.75-0.125
	c-0.229-0.083-0.424-0.203-0.586-0.36c-0.161-0.156-0.286-0.345-0.375-0.565c-0.043-0.11-0.077-0.224-0.098-0.341
	c-0.021-0.115-0.032-0.242-0.032-0.379c0-0.268,0.047-0.512,0.139-0.732c0.093-0.222,0.225-0.411,0.398-0.571
	c0.166-0.153,0.361-0.272,0.584-0.355c0.224-0.084,0.466-0.126,0.729-0.126c0.241,0,0.475,0.034,0.702,0.102
	c0.229,0.068,0.431,0.171,0.609,0.312c0.178,0.14,0.32,0.318,0.425,0.536c0.104,0.217,0.157,0.471,0.157,0.761
	c0,0.361-0.081,0.682-0.242,0.961c-0.161,0.28-0.387,0.498-0.678,0.652C27.96,77.058,27.632,77.136,27.268,77.136L27.268,77.136z
	 M28.681,75.329c0-0.165-0.008-0.305-0.024-0.418c-0.017-0.114-0.049-0.23-0.097-0.351c-0.049-0.119-0.113-0.231-0.194-0.333
	c-0.082-0.103-0.176-0.189-0.284-0.261c-0.108-0.07-0.229-0.126-0.363-0.165c-0.133-0.039-0.264-0.059-0.393-0.059
	c-0.217,0-0.413,0.041-0.588,0.121c-0.176,0.079-0.324,0.192-0.447,0.34c-0.122,0.147-0.215,0.325-0.278,0.535
	c-0.063,0.208-0.095,0.437-0.095,0.685c0,0.242,0.034,0.459,0.102,0.65c0.067,0.191,0.165,0.354,0.292,0.49
	c0.127,0.135,0.276,0.236,0.443,0.304s0.343,0.102,0.527,0.102c0.236,0,0.442-0.051,0.621-0.152
	c0.178-0.102,0.324-0.235,0.436-0.401c0.114-0.165,0.199-0.347,0.255-0.544C28.653,75.674,28.681,75.493,28.681,75.329
	L28.681,75.329z M33.777,73.653h0.105l0.09,0.846c0.032,0.317,0.067,0.626,0.104,0.925l0.099,0.811l0.11,0.84l-0.097-0.007
	c-0.03,0-0.051-0.002-0.064-0.005l-0.072-0.003l-0.11,0.005l-0.125,0.01c0-0.134-0.011-0.302-0.034-0.506
	c-0.012-0.104-0.025-0.209-0.037-0.314l-0.066-0.676l-0.058-0.584c-0.022-0.229-0.043-0.396-0.061-0.501
	c-0.121,0.216-0.22,0.393-0.298,0.533c-0.098,0.176-0.182,0.329-0.252,0.461c-0.063,0.119-0.112,0.211-0.146,0.275
	c-0.012,0.023-0.06,0.115-0.142,0.276c-0.036,0.068-0.083,0.16-0.139,0.275c-0.127,0.259-0.237,0.494-0.333,0.706h-0.056
	l-0.273-0.566c-0.058-0.12-0.128-0.262-0.21-0.425c-0.075-0.148-0.162-0.316-0.262-0.506l-0.539-1.03
	c-0.015,0.131-0.028,0.253-0.041,0.366c-0.012,0.114-0.027,0.239-0.045,0.374l-0.083,0.744l-0.06,0.67
	c0,0.051-0.002,0.126-0.008,0.222c-0.005,0.097-0.007,0.165-0.007,0.205l-0.073-0.007c-0.021,0-0.037-0.002-0.047-0.005
	l-0.056-0.003l-0.063,0.003l-0.049,0.005l-0.068,0.007l0.157-1.025l0.2-1.424c0.067-0.482,0.108-0.807,0.124-0.972h0.13l0.365,0.715
	l0.252,0.489l0.363,0.658c0.086,0.155,0.155,0.277,0.208,0.367c0.065,0.114,0.142,0.244,0.229,0.391l0.386-0.703l0.518-0.95
	c0.078-0.142,0.152-0.275,0.222-0.402c0.059-0.107,0.118-0.215,0.179-0.322C33.694,73.798,33.74,73.717,33.777,73.653L33.777,73.653
	z M40.206,73.653l-1.134,1.093l-0.427,0.428l0.422,0.477l0.487,0.548l0.308,0.352l0.403,0.501v0.023l-0.11-0.007h-0.032
	c-0.012,0-0.027-0.002-0.046-0.005l-0.085-0.003l-0.13,0.005l-0.151,0.01c-0.128-0.186-0.243-0.337-0.344-0.455l-1.091-1.273
	c-0.021-0.018-0.044-0.027-0.068-0.027c-0.003,0-0.007,0.001-0.009,0.004c-0.003,0.002-0.004,0.005-0.006,0.007v1.745l-0.09-0.007
	c-0.029,0-0.05-0.002-0.062-0.005l-0.07-0.003l-0.101,0.005l-0.119,0.01v-3.421l0.126,0.011l0.094,0.005l0.087-0.005l0.134-0.011
	v1.545c0.01,0.007,0.018,0.011,0.024,0.011c0.027,0,0.06-0.014,0.101-0.04c0.029-0.021,0.064-0.053,0.106-0.091
	c0.042-0.038,0.094-0.089,0.157-0.152l1.231-1.272l0.114,0.011l0.085,0.005l0.079-0.005L40.206,73.653L40.206,73.653z
	 M41.941,75.505v1.569l-0.09-0.007c-0.029,0-0.05-0.002-0.062-0.005l-0.07-0.003l-0.101,0.005l-0.119,0.01v-3.421h0.896
	c0.321,0,0.575,0.026,0.761,0.079c0.188,0.052,0.322,0.137,0.404,0.257c0.083,0.119,0.124,0.281,0.124,0.484
	c0,0.201-0.039,0.366-0.119,0.5c-0.079,0.133-0.196,0.24-0.351,0.323c-0.154,0.083-0.354,0.148-0.6,0.197
	c-0.033,0.007-0.075,0.013-0.127,0.018c-0.052,0.004-0.106,0.007-0.163,0.007H42.28c-0.008,0-0.021-0.001-0.039-0.003
	c-0.018-0.001-0.033-0.002-0.043-0.002h-0.046c-0.012,0-0.023,0-0.034,0c-0.017-0.006-0.028-0.009-0.035-0.009h-0.073H41.941
	L41.941,75.505z M41.941,73.845v1.464l0.229,0.01c0.015,0,0.051-0.001,0.11-0.005c0.059-0.002,0.11-0.004,0.154-0.004
	c0.164-0.017,0.305-0.06,0.423-0.131c0.118-0.071,0.209-0.164,0.272-0.281c0.063-0.116,0.095-0.249,0.095-0.398
	c0-0.113-0.02-0.216-0.06-0.313c-0.04-0.095-0.102-0.17-0.185-0.228c-0.084-0.057-0.191-0.092-0.322-0.105
	c-0.013,0-0.062-0.001-0.146-0.004c-0.085-0.003-0.164-0.005-0.237-0.005c-0.072,0-0.138,0-0.198,0S41.971,73.845,41.941,73.845
	L41.941,73.845z M46.32,73.58l1.501,3.494l-0.107-0.007h-0.029c-0.008,0-0.022-0.002-0.042-0.005L47.56,77.06h-0.081l-0.071,0.005
	l-0.111,0.01c-0.075-0.21-0.131-0.364-0.166-0.461c-0.025-0.067-0.056-0.15-0.096-0.25c-0.078-0.203-0.166-0.416-0.264-0.64H45.5
	l-0.125,0.315l-0.149,0.391l-0.112,0.313l-0.107,0.332l-0.079-0.007c-0.022,0-0.039-0.002-0.049-0.005L44.82,77.06h-0.056
	l-0.046,0.005l-0.074,0.01l1.56-3.494H46.32L46.32,73.58z M46.696,75.514l-0.554-1.278l-0.547,1.278H46.696L46.696,75.514z
	 M51.63,76.534l-0.027,0.315c-0.096,0.064-0.207,0.12-0.332,0.163c-0.114,0.039-0.237,0.069-0.369,0.091
	c-0.132,0.021-0.266,0.032-0.403,0.032c-0.273,0-0.518-0.041-0.736-0.124c-0.217-0.082-0.401-0.201-0.553-0.357
	c-0.151-0.156-0.267-0.347-0.349-0.571c-0.081-0.225-0.122-0.47-0.122-0.737c0-0.366,0.083-0.683,0.247-0.948
	c0.165-0.267,0.391-0.469,0.678-0.608c0.289-0.139,0.608-0.209,0.959-0.209c0.122,0,0.245,0.009,0.369,0.024
	c0.124,0.017,0.245,0.042,0.365,0.078s0.232,0.078,0.34,0.128c-0.041,0.104-0.076,0.231-0.105,0.383l-0.034,0.008
	c-0.039-0.051-0.1-0.107-0.184-0.17c-0.083-0.063-0.194-0.123-0.331-0.179s-0.283-0.084-0.439-0.084
	c-0.292,0-0.542,0.071-0.749,0.214c-0.206,0.143-0.362,0.338-0.468,0.586c-0.105,0.248-0.158,0.514-0.158,0.797
	c0,0.313,0.056,0.589,0.168,0.827c0.113,0.238,0.271,0.422,0.475,0.553c0.204,0.13,0.436,0.195,0.694,0.195
	c0.166,0,0.322-0.025,0.468-0.074c0.146-0.05,0.266-0.105,0.361-0.167C51.493,76.639,51.57,76.584,51.63,76.534L51.63,76.534z
	 M54.631,77.136c-0.271,0-0.522-0.042-0.751-0.125c-0.228-0.083-0.424-0.203-0.586-0.36c-0.162-0.156-0.287-0.345-0.375-0.565
	c-0.043-0.11-0.077-0.224-0.098-0.341c-0.021-0.115-0.032-0.242-0.032-0.379c0-0.268,0.046-0.512,0.139-0.732
	c0.092-0.222,0.225-0.411,0.398-0.571c0.166-0.153,0.361-0.272,0.584-0.355c0.224-0.084,0.467-0.126,0.729-0.126
	c0.241,0,0.475,0.034,0.703,0.102c0.229,0.068,0.431,0.171,0.609,0.312c0.178,0.14,0.32,0.318,0.425,0.536
	c0.105,0.217,0.157,0.471,0.157,0.761c0,0.361-0.081,0.682-0.241,0.961c-0.161,0.28-0.388,0.498-0.678,0.652
	C55.323,77.058,54.995,77.136,54.631,77.136L54.631,77.136z M56.044,75.329c0-0.165-0.008-0.305-0.024-0.418
	c-0.017-0.114-0.048-0.23-0.097-0.351c-0.048-0.119-0.112-0.231-0.194-0.333c-0.082-0.103-0.176-0.189-0.285-0.261
	c-0.108-0.07-0.229-0.126-0.362-0.165s-0.264-0.059-0.393-0.059c-0.217,0-0.413,0.041-0.589,0.121
	c-0.176,0.079-0.324,0.192-0.447,0.34c-0.122,0.147-0.215,0.325-0.278,0.535c-0.063,0.208-0.095,0.437-0.095,0.685
	c0,0.242,0.034,0.459,0.102,0.65c0.068,0.191,0.165,0.354,0.292,0.49c0.128,0.135,0.276,0.236,0.443,0.304
	c0.168,0.067,0.343,0.102,0.528,0.102c0.236,0,0.442-0.051,0.621-0.152s0.324-0.235,0.437-0.401
	c0.113-0.165,0.198-0.347,0.255-0.544C56.016,75.674,56.044,75.493,56.044,75.329L56.044,75.329z M59.076,73.896v3.179
	c-0.078-0.01-0.152-0.015-0.22-0.015c-0.074,0-0.148,0.005-0.222,0.015v-3.179c-0.345,0-0.71,0.019-1.094,0.058l0.01-0.08
	l0.005-0.068l-0.002-0.049l-0.005-0.039l-0.007-0.063h2.581l-0.01,0.091l-0.005,0.062l0.005,0.061l0.01,0.088l-0.483-0.041
	c-0.063,0-0.132-0.002-0.205-0.005C59.247,73.899,59.128,73.896,59.076,73.896L59.076,73.896z M61.806,75.391v1.464h0.493
	c0.164-0.017,0.305-0.06,0.423-0.131c0.119-0.071,0.209-0.164,0.272-0.28s0.095-0.249,0.095-0.398c0-0.182-0.047-0.329-0.14-0.444
	c-0.094-0.116-0.236-0.183-0.427-0.2c-0.036-0.003-0.074-0.006-0.114-0.008c-0.041-0.002-0.103-0.002-0.188-0.002h-0.244H61.806
	L61.806,75.391z M61.806,73.653v1.546h0.454c0.321,0,0.574,0.026,0.762,0.079c0.188,0.052,0.322,0.137,0.404,0.257
	c0.083,0.119,0.123,0.281,0.123,0.484c0,0.299-0.085,0.526-0.254,0.686c-0.169,0.16-0.441,0.272-0.815,0.335
	c-0.044,0.007-0.125,0.012-0.243,0.017c-0.118,0.006-0.26,0.008-0.426,0.008c-0.032,0-0.078,0-0.137,0c-0.058,0-0.1,0-0.124,0
	h-0.186v-3.411l0.126,0.011l0.093,0.005l0.087-0.005L61.806,73.653L61.806,73.653z M64.006,77.074v-3.421
	c0.068,0.011,0.142,0.016,0.22,0.016c0.094,0,0.167-0.005,0.219-0.016v3.421l-0.09-0.01c-0.029,0-0.05,0-0.062,0h-0.067H64.15
	h-0.063L64.006,77.074L64.006,77.074z M68.123,77.074v-3.421c0.034,0.011,0.107,0.016,0.22,0.016l0.222-0.016v2.61h0.049l2.275-2.61
	h0.221v3.421c-0.088-0.01-0.161-0.015-0.22-0.015c-0.049,0-0.122,0.005-0.22,0.015v-2.729h-0.052l-2.084,2.425
	c-0.107,0.117-0.194,0.219-0.259,0.305H68.123L68.123,77.074z M75.6,75.146h1.385c-0.022-0.264-0.09-0.498-0.2-0.703
	s-0.266-0.368-0.464-0.49c-0.199-0.123-0.432-0.184-0.701-0.184c-0.115,0-0.229,0.018-0.34,0.052
	c-0.049,0.015-0.1,0.032-0.149,0.054c-0.05,0.021-0.096,0.044-0.138,0.068c-0.083,0.047-0.154,0.096-0.213,0.146
	c-0.059,0.05-0.097,0.087-0.114,0.112l-0.034-0.008c-0.027-0.147-0.063-0.275-0.105-0.383c0.107-0.048,0.222-0.089,0.342-0.125
	c0.055-0.015,0.112-0.029,0.176-0.043s0.13-0.025,0.197-0.035c0.132-0.018,0.25-0.027,0.359-0.027c0.355,0,0.675,0.069,0.961,0.207
	s0.511,0.34,0.677,0.609c0.165,0.269,0.248,0.585,0.248,0.949c0,0.269-0.04,0.514-0.118,0.734c-0.08,0.222-0.195,0.411-0.348,0.568
	s-0.338,0.278-0.559,0.361c-0.221,0.084-0.466,0.126-0.736,0.126c-0.1,0-0.198-0.006-0.297-0.018
	c-0.099-0.011-0.196-0.029-0.294-0.054c-0.195-0.044-0.366-0.116-0.513-0.215l-0.027-0.315c0.114,0.093,0.262,0.185,0.443,0.272
	c0.182,0.09,0.388,0.134,0.618,0.134c0.194,0,0.374-0.037,0.54-0.11c0.164-0.073,0.307-0.178,0.424-0.313
	c0.118-0.136,0.211-0.304,0.277-0.504c0.032-0.1,0.057-0.201,0.073-0.307c0.016-0.104,0.024-0.219,0.024-0.341H75.6
	c-0.032,0-0.069,0.001-0.112,0.003c-0.042,0.001-0.089,0.005-0.142,0.01l-0.19,0.012l0.008-0.061l0.007-0.078l-0.004-0.042
	l-0.008-0.051l-0.003-0.039l0.239,0.014L75.6,75.146L75.6,75.146z M81.45,76.534l-0.026,0.315c-0.096,0.064-0.207,0.12-0.332,0.163
	c-0.114,0.039-0.236,0.069-0.369,0.091c-0.131,0.021-0.266,0.032-0.402,0.032c-0.273,0-0.519-0.041-0.735-0.124
	c-0.218-0.082-0.402-0.201-0.554-0.357c-0.15-0.156-0.268-0.347-0.35-0.571c-0.08-0.225-0.121-0.47-0.121-0.737
	c0-0.366,0.082-0.683,0.246-0.948c0.165-0.267,0.392-0.469,0.679-0.608c0.288-0.139,0.608-0.209,0.959-0.209
	c0.123,0,0.245,0.009,0.369,0.024c0.124,0.017,0.245,0.042,0.365,0.078c0.119,0.036,0.232,0.078,0.34,0.128
	c-0.04,0.104-0.075,0.231-0.104,0.383l-0.034,0.008c-0.039-0.051-0.101-0.107-0.185-0.17c-0.083-0.063-0.194-0.123-0.331-0.179
	s-0.282-0.084-0.438-0.084c-0.293,0-0.543,0.071-0.749,0.214c-0.205,0.143-0.361,0.338-0.467,0.586
	c-0.106,0.248-0.158,0.514-0.158,0.797c0,0.313,0.056,0.589,0.168,0.827s0.271,0.422,0.475,0.553
	c0.204,0.13,0.437,0.195,0.694,0.195c0.166,0,0.322-0.025,0.468-0.074c0.146-0.05,0.266-0.105,0.361-0.167
	C81.313,76.639,81.391,76.584,81.45,76.534L81.45,76.534z M84.036,73.896v3.179c-0.078-0.01-0.151-0.015-0.22-0.015
	c-0.074,0-0.148,0.005-0.222,0.015v-3.179c-0.346,0-0.71,0.019-1.095,0.058l0.01-0.08l0.006-0.068l-0.003-0.049l-0.005-0.039
	L82.5,73.653h2.581l-0.01,0.091l-0.005,0.062l0.005,0.061l0.01,0.088l-0.483-0.041c-0.063,0-0.132-0.002-0.205-0.005
	C84.207,73.899,84.089,73.896,84.036,73.896L84.036,73.896z M86.759,73.891v1.255h0.777h0.134l0.149-0.016l0.16-0.011l-0.009,0.075
	l-0.005,0.057l0.005,0.051l0.009,0.088l-0.16-0.012l-0.149-0.013h-0.134h-0.777v1.46c0.033,0,0.168-0.003,0.404-0.01
	c0.237-0.007,0.404-0.01,0.502-0.01c0.068,0,0.135-0.004,0.2-0.011c0.065-0.008,0.152-0.02,0.262-0.035l-0.008,0.053l-0.007,0.052
	L88.11,76.91c0,0.032,0.001,0.057,0.005,0.073l0.012,0.076H86.32v-3.406h1.774l-0.01,0.09l-0.004,0.063l0.004,0.061l0.01,0.087
	c-0.089-0.017-0.156-0.029-0.202-0.036c-0.08-0.011-0.163-0.017-0.247-0.017l-0.501-0.01H86.759L86.759,73.891z M90.707,73.896
	v3.179c-0.079-0.01-0.152-0.015-0.221-0.015c-0.074,0-0.148,0.005-0.222,0.015v-3.179c-0.345,0-0.71,0.019-1.094,0.058l0.01-0.08
	l0.005-0.068l-0.002-0.049l-0.006-0.039l-0.007-0.063h2.58l-0.01,0.091l-0.005,0.062l0.005,0.061l0.01,0.088l-0.482-0.041
	c-0.063,0-0.132-0.002-0.205-0.005C90.878,73.899,90.759,73.896,90.707,73.896L90.707,73.896z M92.995,77.074v-3.421
	c0.034,0.011,0.107,0.016,0.221,0.016l0.222-0.016v2.61h0.049l2.275-2.61h0.22v3.421c-0.088-0.01-0.161-0.015-0.22-0.015
	c-0.049,0-0.122,0.005-0.22,0.015v-2.729H95.49l-2.084,2.425c-0.107,0.117-0.194,0.219-0.259,0.305H92.995L92.995,77.074z
	 M100.035,73.653L98.9,74.746l-0.426,0.428l0.422,0.477l0.487,0.548l0.308,0.352l0.403,0.501v0.023l-0.11-0.007h-0.032
	c-0.011,0-0.026-0.002-0.046-0.005l-0.085-0.003l-0.13,0.005l-0.151,0.01c-0.128-0.186-0.243-0.337-0.344-0.455l-1.092-1.273
	c-0.021-0.018-0.044-0.027-0.068-0.027c-0.004,0-0.007,0.001-0.01,0.004c-0.002,0.002-0.004,0.005-0.005,0.007v1.745l-0.091-0.007
	c-0.029,0-0.05-0.002-0.062-0.005L97.8,77.06l-0.102,0.005l-0.119,0.01v-3.421l0.127,0.011l0.094,0.005l0.087-0.005l0.135-0.011
	v1.545c0.01,0.007,0.018,0.011,0.023,0.011c0.027,0,0.061-0.014,0.102-0.04c0.029-0.021,0.063-0.053,0.105-0.091
	s0.094-0.089,0.157-0.152l1.231-1.272l0.114,0.011l0.085,0.005l0.079-0.005L100.035,73.653L100.035,73.653z M101.328,77.074v-3.421
	c0.034,0.011,0.107,0.016,0.22,0.016l0.222-0.016v2.61h0.05l2.274-2.61h0.221v3.421c-0.088-0.01-0.161-0.015-0.22-0.015
	c-0.049,0-0.122,0.005-0.22,0.015v-2.729h-0.052l-2.084,2.425c-0.107,0.117-0.194,0.219-0.26,0.305H101.328z"/>
<rect x="0.477" y="1.927" fill-rule="evenodd" clip-rule="evenodd" fill="none" stroke="#FFFFFF" stroke-width="0.216" stroke-miterlimit="22.9256" width="124.501" height="86.25"/>
</svg>
