<?xml version="1.0" encoding="utf-8"?>
<!-- Generator: Adobe Illustrator 16.0.2, SVG Export Plug-In . SVG Version: 6.00 Build 0)  -->
<!DOCTYPE svg PUBLIC "-//W3C//DTD SVG 1.1//EN" "http://www.w3.org/Graphics/SVG/1.1/DTD/svg11.dtd">
<svg version="1.1" id="Слой_1" xmlns="http://www.w3.org/2000/svg" xmlns:xlink="http://www.w3.org/1999/xlink" x="0px" y="0px"
	 width="147.667px" height="47.167px" viewBox="-0.833 -3.083 147.667 47.167"
	 enable-background="new -0.833 -3.083 147.667 47.167" xml:space="preserve">
<rect x="-3.5" y="-6.25" fill="#FFFFFF" width="153" height="54"/>
<path fill="#9DA6A3" d="M139.418,23.292h-8.521V9.938h1.732v7.03h0.002v5.267h0.762v0.002h6.024L139.418,23.292L139.418,23.292z
	 M123.68,23.291H114.7V9.938h8.618v1.058h-1.488h-5.396v4.771h4.428v0.002h1.479v0.835h-1.407v0.001h-4.5v5.627h5.272v0.002h1.972
	v1.057H123.68z M103.21,10.996v8.667v3.63h-1.737v-0.699h0.002V10.996h-2.267l0,0h-2.845V9.939h11.955v1.06L103.21,10.996
	L103.21,10.996z M82.047,20.092h1.588c0.077,2.684,3.363,3.153,5.24,2.075C89.624,21.74,90,21.102,90,20.25
	c0-0.798-0.259-1.402-0.777-1.815c-0.32-0.254-1.02-0.586-2.097-0.999c-1.37-0.531-2.196-0.864-2.476-0.997
	c-0.824-0.386-1.41-0.786-1.756-1.198c-0.438-0.518-0.658-1.176-0.658-1.976c0-4.732,8.673-4.867,8.673-0.145h-1.587
	c-0.075-2.574-2.939-3.173-4.744-1.95c-0.508,0.343-0.811,0.75-0.908,1.223c-0.021,0.112-0.031,0.229-0.031,0.351
	c0,0.771,0.465,1.417,1.396,1.936c0.254,0.133,1.184,0.506,2.794,1.117c0.763,0.291,1.38,0.561,1.849,0.811h-0.01
	c0.285,0.15,0.516,0.294,0.691,0.43c0.824,0.639,1.236,1.478,1.236,2.515c0,1.172-0.459,2.125-1.377,2.863
	C87.924,24.262,82.047,24.08,82.047,20.092L82.047,20.092L82.047,20.092z M75.123,23.292h-1.736v-0.699V10.637V9.938h1.736V23.292
	L75.123,23.292z M67.408,23.292c-0.293,0.146-0.699,0.22-1.217,0.22c-0.771,0-1.365-0.187-1.776-0.56
	c-0.319-0.293-1.019-1.238-2.096-2.834c-0.944-1.424-1.503-2.235-1.676-2.436c-0.173-0.199-0.399-0.299-0.679-0.299h-1.637v5.209
	v0.699h-1.735V9.938h4.31c1.53,0,2.673,0.406,3.432,1.218c0.599,0.64,0.898,1.404,0.898,2.295c0,0.878-0.267,1.649-0.799,2.315
	c-0.624,0.785-1.496,1.177-2.614,1.177l-0.278,0.021v0.1l0.438,0.079c0.239,0.107,0.446,0.273,0.619,0.496
	c0.533,0.889,1.238,1.977,2.117,3.263c0.411,0.597,0.751,1.01,1.018,1.23c0.372,0.307,0.805,0.459,1.297,0.459h0.379L67.408,23.292
	L67.408,23.292z M63.396,13.592c0-0.812-0.286-1.483-0.858-2.016c-0.573-0.533-1.33-0.799-2.275-0.799h-1.936v5.768h1.976
	c0.945,0,1.71-0.319,2.295-0.957C63.131,15.015,63.396,14.35,63.396,13.592L63.396,13.592L63.396,13.592z M49.834,23.292h-1.897
	l-1.783-3.937h-6.296l-1.603,3.937h-0.907L42.949,9.91h0.787L49.834,23.292L49.834,23.292z M45.82,18.51l-2.755-6.159h-0.274
	l-2.602,6.159H45.82z"/>
<rect x="5.185" y="3.557" fill="#9DA6A3" width="26.347" height="34.492"/>
<rect x="30.389" y="23.104" fill="#8FB9C3" width="1.135" height="7.01"/>
<path fill="#8FB9C3" d="M15.285,23.357h4.345c-1.076,2.145-2.215,4.012-2.25,6.279h-1.54C15.225,27.541,15.121,25.42,15.285,23.357
	L15.285,23.357z"/>
<rect x="5.18" y="23.104" fill="#8FB9C3" width="1.134" height="7.01"/>
<rect x="30.389" y="14.437" fill="#8FB9C3" width="1.135" height="1.529"/>
<path fill="#8FB9C3" d="M16.786,15.59h3.732c-0.251,0.501-0.532,0.943-0.829,1.372h-3.246C16.56,16.494,16.675,16.038,16.786,15.59
	L16.786,15.59z"/>
<rect x="5.18" y="14.437" fill="#8FB9C3" width="1.134" height="1.529"/>
<rect x="30.389" y="8.292" fill="#8FB9C3" width="1.135" height="2.576"/>
<rect x="5.18" y="8.292" fill="#8FB9C3" width="1.134" height="2.576"/>
<path fill="#8FB9C3" d="M17.697,10.085h3.106c0.201,0.693,0.299,1.45,0.271,2.255l-3.563,0.002
	C17.657,11.501,17.726,10.78,17.697,10.085L17.697,10.085z"/>
<path fill="#8FB9C3" d="M22.067,34.216h-1.966c0.082-1.366,1.162-2.323,3.941-2.782c1.625-0.269,2.633-0.887-0.256,1.176
	C23.042,33.141,22.486,33.695,22.067,34.216L22.067,34.216z"/>
<rect x="5.18" y="15.966" fill="#E5D8B0" width="1.134" height="4.079"/>
<path fill="#E5D8B0" d="M17.511,12.342l3.563-0.002l0.419-0.142c-0.194,1.443-0.558,2.56-0.976,3.392h-3.732
	C17.073,14.448,17.511,12.342,17.511,12.342z"/>
<path fill="#E5D8B0" d="M16.444,16.961h3.246c-0.743,1.071-1.583,2.052-2.303,3.655h-1.742
	C15.869,19.354,16.157,18.127,16.444,16.961L16.444,16.961z"/>
<path fill="#E5D8B0" d="M20.813,20.616H18.54c0.907-0.701,1.931-1.491,2.971-3.53C21.437,18.398,21.173,19.557,20.813,20.616
	L20.813,20.616z"/>
<path fill="#E5D8B0" d="M15.84,29.637h1.54c-0.02,1.338,0.342,2.813,1.326,4.568h-0.563C17.031,32.716,16.294,31.186,15.84,29.637
	L15.84,29.637z"/>
<rect x="30.389" y="30.113" fill="#E5D8B0" width="1.135" height="5.098"/>
<rect x="30.389" y="15.966" fill="#E5D8B0" width="1.135" height="4.079"/>
<rect x="5.18" y="30.113" fill="#E5D8B0" width="1.134" height="5.098"/>
<rect x="30.389" y="35.211" fill="#F5B4B7" width="1.135" height="2.805"/>
<path fill="#F5B4B7" d="M18.142,34.205h0.564c0.419,0.747,0.95,1.543,1.612,2.398C19.467,35.822,18.749,35.021,18.142,34.205
	L18.142,34.205z"/>
<path fill="#F5B4B7" d="M20.102,34.216h1.966c-1.206,1.496-1.285,2.692-1.5,2.162C20.242,35.575,20.063,34.854,20.102,34.216
	L20.102,34.216z"/>
<rect x="5.18" y="35.211" fill="#F5B4B7" width="1.134" height="2.805"/>
<rect x="5.18" y="20.045" fill="#F5B4B7" width="1.134" height="3.059"/>
<rect x="30.389" y="20.045" fill="#F5B4B7" width="1.135" height="3.059"/>
<rect x="30.389" y="10.868" fill="#F5B4B7" width="1.135" height="3.569"/>
<rect x="5.18" y="10.868" fill="#F5B4B7" width="1.134" height="3.569"/>
<path fill="#F5B4B7" d="M20.804,10.085h-3.106c-0.048-1.154-0.392-2.086-1.228-2.732c-0.602-0.466-1.183-0.688-1.938-0.568
	c-1.403,0.219-2.778,1.324-2.778,1.324C14.789,4.109,19.609,5.957,20.804,10.085L20.804,10.085z"/>
<rect x="5.18" y="3.553" fill="#F5B4B7" width="1.134" height="4.739"/>
<rect x="30.389" y="3.553" fill="#F5B4B7" width="1.135" height="4.739"/>
<path fill="#F5B4B7" d="M15.645,20.616h1.742c-0.274,0.604-0.531,1.298-0.756,2.118c0.525-1.051,1.179-1.555,1.909-2.118h2.272
	c-0.334,0.985-0.753,1.885-1.183,2.741h-4.345C15.358,22.428,15.485,21.514,15.645,20.616z"/>
<path fill="#9DA6A3" d="M46.617,32.068h0.215l0.34-0.756l0.415-0.947l0.382-0.898c0.112-0.268,0.188-0.455,0.228-0.564h0.239
	l0.428,1.037l0.542,1.301l0.355,0.83h0.215c-0.01,0.054-0.015,0.119-0.015,0.199c0,0.106,0.005,0.189,0.015,0.248h-0.044
	c-0.063-0.098-0.167-0.156-0.31-0.177c-0.144-0.021-0.373-0.032-0.691-0.032H47.71c-0.08,0-0.163,0.002-0.248,0.004
	c-0.086,0-0.176,0.004-0.27,0.006c-0.056,0-0.108,0.004-0.157,0.015c-0.05,0.009-0.102,0.022-0.155,0.04
	c-0.09,0.029-0.166,0.077-0.229,0.146h-0.035c0.01-0.049,0.015-0.133,0.015-0.248L46.617,32.068L46.617,32.068z M47.152,32.068
	h2.141l-0.245-0.61l-0.412-1.021l-0.293-0.72l-0.107-0.271h-0.02l-0.266,0.597l-0.256,0.604c-0.113,0.269-0.207,0.504-0.283,0.707
	C47.335,31.559,47.248,31.796,47.152,32.068L47.152,32.068z M52.712,32.385c-0.271,0-0.522-0.042-0.75-0.125
	c-0.229-0.082-0.424-0.203-0.586-0.359c-0.161-0.156-0.286-0.346-0.375-0.565c-0.043-0.11-0.077-0.224-0.098-0.341
	c-0.021-0.115-0.032-0.242-0.032-0.379c0-0.268,0.047-0.512,0.139-0.732c0.093-0.222,0.225-0.41,0.398-0.57
	c0.166-0.153,0.361-0.272,0.584-0.355c0.224-0.084,0.466-0.126,0.729-0.126c0.241,0,0.475,0.034,0.702,0.103
	c0.229,0.067,0.431,0.17,0.609,0.312c0.178,0.14,0.32,0.317,0.425,0.536c0.104,0.217,0.157,0.471,0.157,0.761
	c0,0.36-0.081,0.683-0.242,0.961c-0.161,0.28-0.387,0.498-0.678,0.651C53.405,32.307,53.076,32.385,52.712,32.385L52.712,32.385z
	 M54.125,30.578c0-0.165-0.008-0.305-0.024-0.418c-0.017-0.114-0.049-0.23-0.097-0.352c-0.049-0.119-0.113-0.23-0.194-0.332
	c-0.082-0.104-0.176-0.189-0.284-0.262c-0.108-0.07-0.229-0.126-0.363-0.165c-0.133-0.038-0.264-0.059-0.393-0.059
	c-0.217,0-0.413,0.041-0.588,0.12c-0.176,0.08-0.324,0.193-0.447,0.341c-0.122,0.147-0.215,0.325-0.278,0.534
	s-0.095,0.438-0.095,0.686c0,0.242,0.034,0.459,0.102,0.65c0.067,0.191,0.165,0.354,0.292,0.49c0.127,0.135,0.276,0.235,0.443,0.304
	c0.167,0.067,0.343,0.103,0.527,0.103c0.236,0,0.442-0.052,0.621-0.152c0.178-0.103,0.324-0.235,0.436-0.401
	c0.114-0.165,0.199-0.347,0.255-0.544C54.097,30.923,54.125,30.742,54.125,30.578L54.125,30.578z M59.222,28.902h0.105l0.09,0.846
	c0.032,0.316,0.067,0.626,0.104,0.925l0.099,0.812l0.11,0.84l-0.097-0.008c-0.03,0-0.051-0.002-0.064-0.004l-0.072-0.004
	l-0.11,0.006l-0.125,0.01c0-0.135-0.011-0.303-0.034-0.506c-0.012-0.104-0.025-0.209-0.037-0.314l-0.066-0.676l-0.058-0.584
	c-0.022-0.229-0.043-0.396-0.061-0.501c-0.121,0.216-0.22,0.394-0.298,0.532c-0.098,0.177-0.182,0.33-0.252,0.461
	c-0.063,0.119-0.112,0.211-0.146,0.275c-0.012,0.023-0.06,0.115-0.142,0.276c-0.036,0.067-0.083,0.159-0.139,0.274
	c-0.127,0.26-0.237,0.494-0.333,0.707H57.64l-0.273-0.566c-0.058-0.12-0.128-0.262-0.21-0.426c-0.075-0.147-0.162-0.315-0.262-0.506
	l-0.539-1.029c-0.015,0.131-0.028,0.253-0.041,0.365c-0.012,0.115-0.027,0.24-0.045,0.375l-0.083,0.744l-0.06,0.67
	c0,0.051-0.002,0.125-0.008,0.222c-0.005,0.097-0.007,0.165-0.007,0.204l-0.073-0.006c-0.021,0-0.037-0.002-0.047-0.006
	l-0.056-0.002l-0.063,0.002l-0.049,0.006l-0.068,0.006l0.157-1.024l0.2-1.424c0.067-0.481,0.108-0.808,0.124-0.972h0.13l0.365,0.715
	l0.252,0.488l0.363,0.658c0.086,0.155,0.155,0.277,0.208,0.367c0.065,0.114,0.142,0.244,0.229,0.391l0.386-0.703l0.518-0.949
	c0.078-0.143,0.152-0.275,0.222-0.402c0.059-0.107,0.118-0.215,0.179-0.322C59.139,29.047,59.185,28.966,59.222,28.902
	L59.222,28.902z M65.65,28.902l-1.135,1.093l-0.426,0.428l0.422,0.478l0.486,0.547l0.309,0.353l0.402,0.501v0.023L65.6,32.316
	h-0.031c-0.012,0-0.027-0.002-0.047-0.006l-0.086-0.002l-0.129,0.004l-0.151,0.01c-0.128-0.186-0.243-0.336-0.345-0.454
	l-1.091-1.272c-0.021-0.019-0.044-0.027-0.068-0.027c-0.003,0-0.007,0-0.009,0.004c-0.004,0.002-0.005,0.005-0.006,0.007v1.745
	l-0.091-0.008c-0.028,0-0.05-0.002-0.062-0.004l-0.07-0.004l-0.101,0.006l-0.118,0.01v-3.422l0.125,0.012l0.094,0.005l0.088-0.005
	l0.135-0.012v1.545c0.01,0.008,0.018,0.012,0.023,0.012c0.027,0,0.061-0.014,0.102-0.04c0.029-0.021,0.063-0.053,0.105-0.091
	c0.041-0.038,0.094-0.09,0.157-0.152l1.231-1.271l0.113,0.011l0.086,0.005l0.078-0.005L65.65,28.902L65.65,28.902z M67.385,30.754
	v1.568l-0.09-0.006c-0.029,0-0.05-0.002-0.062-0.006l-0.069-0.002l-0.102,0.004l-0.119,0.01v-3.42h0.896
	c0.32,0,0.574,0.025,0.761,0.078c0.188,0.053,0.321,0.138,0.404,0.258c0.083,0.119,0.124,0.281,0.124,0.484
	c0,0.2-0.039,0.365-0.119,0.5c-0.079,0.133-0.195,0.239-0.351,0.322c-0.154,0.083-0.354,0.148-0.601,0.197
	c-0.032,0.007-0.074,0.013-0.127,0.018c-0.052,0.004-0.106,0.008-0.163,0.008h-0.044c-0.009,0-0.021-0.002-0.039-0.004
	c-0.018,0-0.033-0.002-0.044-0.002h-0.046c-0.013,0-0.023,0-0.035,0c-0.017-0.006-0.027-0.009-0.034-0.009h-0.073L67.385,30.754
	L67.385,30.754z M67.385,29.094v1.465l0.229,0.01c0.015,0,0.052-0.002,0.11-0.006c0.059-0.002,0.109-0.004,0.154-0.004
	c0.164-0.017,0.305-0.06,0.423-0.131c0.118-0.07,0.209-0.164,0.272-0.281c0.063-0.115,0.095-0.248,0.095-0.397
	c0-0.112-0.021-0.216-0.06-0.313c-0.04-0.095-0.102-0.17-0.186-0.228s-0.19-0.092-0.321-0.104c-0.013,0-0.062-0.002-0.146-0.004
	c-0.086-0.004-0.164-0.006-0.238-0.006c-0.071,0-0.137,0-0.197,0S67.416,29.094,67.385,29.094L67.385,29.094z M71.764,28.829
	l1.501,3.493l-0.106-0.006H73.13c-0.008,0-0.022-0.002-0.041-0.006l-0.084-0.002h-0.08l-0.071,0.004l-0.111,0.01
	c-0.074-0.209-0.131-0.363-0.166-0.461c-0.023-0.066-0.057-0.149-0.096-0.25c-0.077-0.202-0.166-0.416-0.264-0.639h-1.271
	l-0.125,0.314l-0.148,0.391l-0.111,0.313l-0.107,0.331l-0.079-0.006c-0.022,0-0.039-0.002-0.049-0.006l-0.059-0.002h-0.056
	l-0.047,0.004l-0.073,0.01l1.56-3.493H71.764L71.764,28.829z M72.141,30.764l-0.555-1.279l-0.547,1.279H72.141L72.141,30.764z
	 M77.074,31.783l-0.026,0.314c-0.096,0.064-0.206,0.12-0.331,0.164c-0.115,0.038-0.236,0.068-0.369,0.09s-0.267,0.032-0.402,0.032
	c-0.272,0-0.52-0.041-0.735-0.124c-0.218-0.082-0.401-0.201-0.554-0.357c-0.152-0.155-0.268-0.346-0.35-0.57
	c-0.08-0.225-0.121-0.471-0.121-0.736c0-0.367,0.082-0.684,0.246-0.949c0.164-0.267,0.391-0.469,0.678-0.607
	c0.289-0.139,0.608-0.209,0.959-0.209c0.123,0,0.246,0.009,0.369,0.023c0.125,0.018,0.246,0.043,0.365,0.078
	c0.119,0.036,0.232,0.078,0.34,0.129c-0.041,0.104-0.076,0.23-0.104,0.383l-0.034,0.008c-0.039-0.051-0.101-0.107-0.185-0.17
	c-0.084-0.063-0.194-0.123-0.332-0.18c-0.137-0.056-0.281-0.084-0.438-0.084c-0.292,0-0.542,0.071-0.748,0.215
	c-0.205,0.143-0.361,0.338-0.468,0.586s-0.157,0.514-0.157,0.797c0,0.313,0.055,0.589,0.168,0.826
	c0.112,0.238,0.271,0.422,0.475,0.554c0.205,0.13,0.437,0.194,0.693,0.194c0.166,0,0.321-0.024,0.469-0.073
	c0.146-0.05,0.266-0.104,0.36-0.167C76.938,31.889,77.016,31.833,77.074,31.783L77.074,31.783z M80.075,32.385
	c-0.271,0-0.522-0.042-0.751-0.125c-0.229-0.082-0.424-0.203-0.586-0.359s-0.287-0.346-0.375-0.565
	c-0.043-0.11-0.076-0.224-0.098-0.341c-0.021-0.115-0.031-0.242-0.031-0.379c0-0.268,0.047-0.512,0.139-0.732
	c0.093-0.222,0.227-0.41,0.398-0.57c0.166-0.153,0.36-0.272,0.584-0.355c0.225-0.084,0.467-0.126,0.729-0.126
	c0.241,0,0.477,0.034,0.702,0.103c0.229,0.067,0.433,0.17,0.608,0.312c0.18,0.14,0.32,0.317,0.426,0.536
	c0.104,0.217,0.156,0.471,0.156,0.761c0,0.36-0.08,0.683-0.24,0.961c-0.16,0.28-0.389,0.498-0.678,0.651
	C80.768,32.307,80.439,32.385,80.075,32.385L80.075,32.385z M81.488,30.578c0-0.165-0.008-0.305-0.023-0.418
	c-0.018-0.114-0.049-0.23-0.098-0.352c-0.049-0.119-0.111-0.23-0.193-0.332c-0.082-0.104-0.176-0.189-0.285-0.262
	c-0.107-0.07-0.229-0.126-0.361-0.165c-0.133-0.038-0.264-0.059-0.394-0.059c-0.218,0-0.413,0.041-0.589,0.12
	c-0.176,0.08-0.324,0.193-0.447,0.341c-0.121,0.147-0.215,0.325-0.277,0.534s-0.096,0.438-0.096,0.686
	c0,0.242,0.035,0.459,0.103,0.65s0.166,0.354,0.293,0.49c0.128,0.135,0.274,0.235,0.442,0.304c0.168,0.067,0.344,0.103,0.527,0.103
	c0.236,0,0.443-0.052,0.621-0.152c0.178-0.102,0.324-0.235,0.438-0.401c0.113-0.165,0.197-0.347,0.254-0.544
	C81.461,30.923,81.488,30.742,81.488,30.578L81.488,30.578z M84.52,29.145v3.18c-0.078-0.01-0.15-0.016-0.22-0.016
	c-0.073,0-0.147,0.006-0.222,0.016v-3.18c-0.346,0-0.71,0.02-1.094,0.059l0.01-0.08l0.005-0.068l-0.003-0.049l-0.005-0.039
	l-0.007-0.063h2.58l-0.01,0.091l-0.006,0.062l0.006,0.062l0.01,0.088l-0.482-0.041c-0.064,0-0.133-0.002-0.205-0.005
	C84.691,29.148,84.572,29.145,84.52,29.145L84.52,29.145z M87.25,30.641v1.463h0.494c0.164-0.017,0.305-0.06,0.423-0.131
	c0.118-0.07,0.209-0.164,0.272-0.279c0.063-0.116,0.096-0.25,0.096-0.398c0-0.182-0.047-0.329-0.141-0.443
	c-0.095-0.117-0.236-0.184-0.428-0.201c-0.035-0.002-0.074-0.006-0.113-0.008c-0.041-0.002-0.104-0.002-0.188-0.002h-0.244H87.25
	L87.25,30.641z M87.25,28.902v1.545h0.455c0.32,0,0.574,0.027,0.762,0.08c0.188,0.052,0.321,0.137,0.404,0.257
	c0.082,0.118,0.123,0.28,0.123,0.483c0,0.299-0.086,0.526-0.254,0.687c-0.17,0.159-0.441,0.272-0.815,0.335
	c-0.044,0.007-0.125,0.012-0.243,0.018c-0.117,0.006-0.26,0.008-0.426,0.008c-0.033,0-0.078,0-0.137,0s-0.102,0-0.125,0h-0.186
	v-3.412l0.127,0.012l0.094,0.005l0.087-0.005L87.25,28.902L87.25,28.902z M89.451,32.322v-3.42c0.068,0.011,0.141,0.016,0.219,0.016
	c0.096,0,0.168-0.005,0.221-0.016v3.42l-0.091-0.01c-0.028,0-0.05,0-0.062,0H89.67h-0.074h-0.063L89.451,32.322L89.451,32.322z
	 M93.566,32.322v-3.42c0.033,0.011,0.106,0.016,0.221,0.016l0.221-0.016v2.609h0.049l2.275-2.609h0.221v3.42
	c-0.088-0.01-0.16-0.014-0.22-0.014c-0.049,0-0.122,0.004-0.22,0.014v-2.729h-0.053l-2.084,2.426
	c-0.106,0.117-0.193,0.219-0.259,0.305h-0.151V32.322z M101.044,30.395h1.386c-0.022-0.264-0.091-0.498-0.201-0.703
	c-0.109-0.205-0.266-0.367-0.463-0.489c-0.199-0.123-0.433-0.185-0.701-0.185c-0.115,0-0.229,0.019-0.34,0.053
	c-0.05,0.015-0.101,0.031-0.149,0.054c-0.05,0.021-0.097,0.044-0.138,0.067c-0.084,0.047-0.154,0.097-0.213,0.146
	c-0.06,0.051-0.098,0.087-0.115,0.112l-0.033-0.009c-0.027-0.146-0.063-0.274-0.105-0.383c0.107-0.047,0.223-0.088,0.342-0.125
	c0.056-0.015,0.112-0.029,0.176-0.043c0.064-0.014,0.131-0.024,0.197-0.035c0.133-0.018,0.25-0.026,0.359-0.026
	c0.355,0,0.676,0.069,0.961,0.207c0.286,0.138,0.512,0.34,0.678,0.608c0.164,0.27,0.248,0.586,0.248,0.949
	c0,0.27-0.041,0.514-0.119,0.734c-0.08,0.222-0.194,0.41-0.348,0.568c-0.152,0.156-0.338,0.277-0.559,0.36
	c-0.221,0.084-0.467,0.126-0.736,0.126c-0.1,0-0.197-0.006-0.297-0.018s-0.195-0.029-0.294-0.055
	c-0.194-0.043-0.366-0.115-0.513-0.215l-0.027-0.314c0.113,0.093,0.262,0.185,0.443,0.271c0.182,0.09,0.388,0.135,0.617,0.135
	c0.194,0,0.375-0.037,0.541-0.11c0.164-0.073,0.307-0.179,0.424-0.313c0.117-0.136,0.211-0.304,0.276-0.504
	c0.032-0.1,0.058-0.201,0.073-0.307c0.016-0.104,0.023-0.219,0.023-0.342h-1.395c-0.031,0-0.068,0.002-0.111,0.004
	c-0.043,0.001-0.09,0.005-0.143,0.01l-0.189,0.012l0.008-0.061l0.007-0.078l-0.005-0.042l-0.008-0.052l-0.002-0.038l0.238,0.014
	L101.044,30.395L101.044,30.395z M106.895,31.783l-0.025,0.314c-0.096,0.064-0.207,0.12-0.332,0.164
	c-0.114,0.038-0.236,0.068-0.369,0.09c-0.131,0.021-0.266,0.032-0.402,0.032c-0.272,0-0.519-0.041-0.734-0.124
	c-0.219-0.082-0.402-0.201-0.555-0.357c-0.149-0.155-0.268-0.346-0.35-0.57c-0.08-0.225-0.121-0.471-0.121-0.736
	c0-0.367,0.082-0.684,0.246-0.949c0.165-0.267,0.393-0.469,0.68-0.607s0.607-0.209,0.959-0.209c0.123,0,0.244,0.009,0.368,0.023
	c0.124,0.018,0.245,0.043,0.365,0.078c0.119,0.036,0.231,0.078,0.34,0.129c-0.04,0.104-0.075,0.23-0.104,0.383l-0.033,0.008
	c-0.039-0.051-0.102-0.107-0.186-0.17c-0.082-0.063-0.193-0.123-0.33-0.18c-0.138-0.056-0.283-0.084-0.438-0.084
	c-0.293,0-0.543,0.071-0.749,0.215c-0.205,0.143-0.361,0.338-0.467,0.586c-0.106,0.248-0.158,0.514-0.158,0.797
	c0,0.313,0.057,0.589,0.168,0.826c0.111,0.238,0.271,0.422,0.475,0.554c0.205,0.13,0.438,0.194,0.694,0.194
	c0.166,0,0.321-0.024,0.468-0.073c0.146-0.05,0.266-0.104,0.361-0.167C106.758,31.889,106.835,31.833,106.895,31.783L106.895,31.783
	z M109.48,29.145v3.18c-0.078-0.01-0.151-0.016-0.221-0.016c-0.074,0-0.148,0.006-0.222,0.016v-3.18c-0.347,0-0.71,0.02-1.095,0.059
	l0.01-0.08l0.006-0.068l-0.003-0.049l-0.005-0.039l-0.008-0.063h2.58l-0.01,0.091l-0.005,0.062l0.005,0.062l0.01,0.088l-0.482-0.041
	c-0.063,0-0.132-0.002-0.205-0.005C109.65,29.148,109.533,29.145,109.48,29.145L109.48,29.145z M112.203,29.141v1.254h0.777h0.133
	l0.15-0.016l0.159-0.011l-0.009,0.075L113.41,30.5l0.005,0.051l0.009,0.088l-0.16-0.012l-0.148-0.014h-0.135h-0.776v1.461
	c0.032,0,0.168-0.004,0.403-0.01c0.238-0.008,0.404-0.01,0.502-0.01c0.068,0,0.136-0.005,0.201-0.012
	c0.064-0.008,0.151-0.02,0.262-0.035l-0.008,0.053l-0.008,0.053l-0.002,0.046c0,0.032,0.002,0.057,0.006,0.073l0.012,0.076h-1.807
	v-3.406h1.773l-0.01,0.09l-0.004,0.063l0.004,0.062l0.01,0.087c-0.089-0.018-0.156-0.029-0.202-0.036
	c-0.08-0.011-0.163-0.017-0.247-0.017l-0.501-0.01H112.203L112.203,29.141z M116.15,29.145v3.18
	c-0.078-0.01-0.151-0.016-0.221-0.016c-0.074,0-0.147,0.006-0.222,0.016v-3.18c-0.345,0-0.71,0.02-1.095,0.059l0.011-0.08
	l0.005-0.068l-0.002-0.049l-0.006-0.039l-0.008-0.063h2.58l-0.01,0.091l-0.004,0.062l0.004,0.062l0.01,0.088l-0.481-0.041
	c-0.063,0-0.132-0.002-0.205-0.005C116.322,29.148,116.203,29.145,116.15,29.145L116.15,29.145z M118.439,32.322v-3.42
	c0.033,0.011,0.106,0.016,0.221,0.016l0.222-0.016v2.609h0.05l2.274-2.609h0.22v3.42c-0.088-0.01-0.16-0.014-0.22-0.014
	c-0.049,0-0.122,0.004-0.22,0.014v-2.729h-0.053l-2.084,2.426c-0.106,0.117-0.193,0.219-0.259,0.305h-0.151V32.322z M125.479,28.902
	l-1.135,1.093l-0.426,0.428l0.422,0.478l0.487,0.547l0.308,0.353l0.403,0.501v0.023l-0.11-0.008h-0.031
	c-0.012,0-0.026-0.002-0.047-0.004l-0.084-0.004l-0.131,0.006l-0.15,0.01c-0.129-0.186-0.243-0.338-0.344-0.455l-1.093-1.273
	c-0.021-0.018-0.044-0.027-0.067-0.027c-0.004,0-0.008,0.002-0.01,0.004c-0.003,0.003-0.005,0.006-0.006,0.008v1.745l-0.091-0.007
	c-0.028,0-0.05-0.002-0.062-0.006l-0.069-0.002l-0.103,0.004l-0.119,0.011v-3.421l0.127,0.011l0.095,0.005l0.087-0.005l0.135-0.011
	v1.545c0.01,0.007,0.018,0.011,0.023,0.011c0.027,0,0.061-0.015,0.102-0.04c0.029-0.021,0.063-0.053,0.105-0.091
	c0.041-0.038,0.094-0.089,0.156-0.151l1.231-1.273l0.114,0.012l0.084,0.005l0.08-0.005L125.479,28.902L125.479,28.902z
	 M126.771,32.322v-3.42c0.035,0.011,0.107,0.016,0.221,0.016l0.222-0.016v2.609h0.05l2.274-2.609h0.221v3.42
	c-0.088-0.01-0.161-0.014-0.22-0.014c-0.049,0-0.122,0.004-0.221,0.014v-2.729h-0.051l-2.084,2.426
	c-0.107,0.117-0.195,0.219-0.261,0.305h-0.151V32.322z"/>
</svg>
